<svg width="1200" height="750" xmlns="http://www.w3.org/2000/svg" viewBox="0 0 1200 750">
  <rect width="1200" height="750" fill="#070707"/>
  <path d="M0 90h1200M0 180h1200M0 270h1200M0 360h1200M0 450h1200M0 540h1200M0 630h1200M120 0v750M240 0v750M360 0v750M480 0v750M600 0v750M720 0v750M840 0v750M960 0v750M1080 0v750" stroke="#fff" stroke-opacity=".035"/>
  <rect x="78" y="76" width="1044" height="598" rx="30" fill="#0d0d0d" stroke="#fff" stroke-opacity=".1"/>
  <rect x="122" y="124" width="286" height="216" rx="22" fill="#131313" stroke="#f8e71c" stroke-opacity=".35"/>
  <circle cx="265" cy="232" r="65" fill="none" stroke="#272727" stroke-width="14"/>
  <path d="M265 167a65 65 0 0 1 57 96" fill="none" stroke="#f8e71c" stroke-width="14" stroke-linecap="round"/>
  <text x="242" y="244" fill="#fff" font-family="system-ui" font-size="34" font-weight="700">88</text>
  <rect x="444" y="124" width="634" height="216" rx="22" fill="#101010" stroke="#fff" stroke-opacity=".08"/>
  <path d="M490 282l66-48 63 20 66-82 68 53 67-18 70 51 82-76 60 33" fill="none" stroke="#f8e71c" stroke-width="5"/>
  <g fill="#1a1a1a" stroke="#fff" stroke-opacity=".08"><rect x="122" y="374" width="300" height="114" rx="18"/><rect x="444" y="374" width="300" height="114" rx="18"/><rect x="766" y="374" width="312" height="114" rx="18"/><rect x="122" y="514" width="956" height="112" rx="18"/></g>
  <text x="130" y="62" fill="#f8e71c" font-family="monospace" font-size="18" letter-spacing="4">KILO TOOLKIT</text>
  <text x="156" y="440" fill="#f4f4f4" font-family="system-ui" font-size="28" font-weight="700">SYSTEMSCOPE</text>
  <text x="156" y="469" fill="#777" font-family="system-ui" font-size="16">Hardware · Performance · Storage</text>
</svg>
